<svg width="30" height="24" viewBox="0 0 30 24" fill="none" xmlns="http://www.w3.org/2000/svg">
<path d="M26.3335 0.666504H3.66683C2.1085 0.666504 0.847663 1.9415 0.847663 3.49984L0.833496 20.4998C0.833496 22.0582 2.1085 23.3332 3.66683 23.3332H26.3335C27.8918 23.3332 29.1668 22.0582 29.1668 20.4998V3.49984C29.1668 1.9415 27.8918 0.666504 26.3335 0.666504ZM24.9168 20.4998H5.0835C4.30433 20.4998 3.66683 19.8623 3.66683 19.0832V6.33317L13.4985 12.4815C14.4193 13.0623 15.581 13.0623 16.5018 12.4815L26.3335 6.33317V19.0832C26.3335 19.8623 25.696 20.4998 24.9168 20.4998ZM15.0002 10.5832L3.66683 3.49984H26.3335L15.0002 10.5832Z" fill="white"/>
</svg>
