<svg width="24" height="30" viewBox="0 0 24 30" fill="none" xmlns="http://www.w3.org/2000/svg">
<path d="M11.9998 13.2998C12.5602 13.2998 13.108 13.1336 13.574 12.8223C14.0399 12.511 14.403 12.0685 14.6175 11.5507C14.8319 11.033 14.8881 10.4633 14.7787 9.91371C14.6694 9.3641 14.3996 8.85925 14.0033 8.463C13.6071 8.06675 13.1022 7.7969 12.5526 7.68757C12.003 7.57825 11.4333 7.63436 10.9156 7.84881C10.3978 8.06325 9.95534 8.42641 9.64401 8.89235C9.33268 9.35829 9.1665 9.90609 9.1665 10.4665C9.1665 11.2179 9.46502 11.9386 9.99637 12.4699C10.5277 13.0013 11.2484 13.2998 11.9998 13.2998ZM10.994 23.089C11.1257 23.2217 11.2824 23.3271 11.455 23.3991C11.6277 23.471 11.8128 23.508 11.9998 23.508C12.1869 23.508 12.372 23.471 12.5447 23.3991C12.7173 23.3271 12.874 23.2217 13.0057 23.089L18.7998 17.2806C20.1456 15.9356 21.0622 14.2216 21.4338 12.3555C21.8054 10.4895 21.6152 8.55511 20.8873 6.79714C20.1594 5.03918 18.9265 3.53657 17.3445 2.47938C15.7625 1.42219 13.9025 0.85791 11.9998 0.85791C10.0971 0.85791 8.23716 1.42219 6.65519 2.47938C5.07322 3.53657 3.84031 5.03918 3.11241 6.79714C2.3845 8.55511 2.1943 10.4895 2.56587 12.3555C2.93743 14.2216 3.85407 15.9356 5.19984 17.2806L10.994 23.089ZM5.24234 9.8148C5.33913 8.80474 5.66028 7.82905 6.18233 6.95896C6.70438 6.08887 7.41416 5.34636 8.25984 4.78563C9.37079 4.05619 10.6708 3.66754 11.9998 3.66754C13.3289 3.66754 14.6289 4.05619 15.7398 4.78563C16.5799 5.34444 17.2856 6.08245 17.8064 6.94659C18.3271 7.81074 18.6499 8.77954 18.7515 9.78333C18.8531 10.7871 18.731 11.8009 18.394 12.7519C18.0569 13.7029 17.5134 14.5673 16.8023 15.2831L11.9998 20.0856L7.19734 15.2831C6.48549 14.5743 5.94065 13.7156 5.60246 12.7697C5.26427 11.8237 5.14125 10.8143 5.24234 9.8148ZM21.9165 26.3331H2.08317C1.70745 26.3331 1.34711 26.4824 1.08144 26.7481C0.81576 27.0137 0.666504 27.3741 0.666504 27.7498C0.666504 28.1255 0.81576 28.4859 1.08144 28.7515C1.34711 29.0172 1.70745 29.1665 2.08317 29.1665H21.9165C22.2922 29.1665 22.6526 29.0172 22.9182 28.7515C23.1839 28.4859 23.3332 28.1255 23.3332 27.7498C23.3332 27.3741 23.1839 27.0137 22.9182 26.7481C22.6526 26.4824 22.2922 26.3331 21.9165 26.3331Z" fill="white"/>
</svg>
